HIERARCHY
ROOT SpineBase
{
  OFFSET 0.000000 0.000000 0.000000
  CHANNELS 6 Xposition Yposition Zposition Zrotation Xrotation Yrotation
  JOINT SpineMid
  {
    OFFSET 0.000000 31.511074 0.000000
    CHANNELS 3 Zrotation Xrotation Yrotation
    JOINT SpineShoulder
    {
      OFFSET 0.249702 23.487143 -0.780155
      CHANNELS 3 Zrotation Xrotation Yrotation
      JOINT Neck
      {
        OFFSET 0.181172 7.796906 -0.545657
        CHANNELS 3 Zrotation Xrotation Yrotation
        JOINT Head
        {
          OFFSET 4.652820 12.976190 2.521547
          CHANNELS 3 Zrotation Xrotation Yrotation
          End Site
          {
            OFFSET 0 0 0
          }
        }
      }
      JOINT ShoulderLeft
      {
        OFFSET -8.805894 -2.339137 -12.148087
        CHANNELS 3 Zrotation Xrotation Yrotation
        JOINT ElbowLeft
        {
          OFFSET -4.892991 -24.819284 -8.524295
          CHANNELS 3 Zrotation Xrotation Yrotation
          JOINT WristLeft
          {
            OFFSET 4.226241 -21.924466 -5.063759
            CHANNELS 3 Zrotation Xrotation Yrotation
            JOINT HandLeft
            {
              OFFSET 1.503084 -8.743120 0.359961
              CHANNELS 3 Zrotation Xrotation Yrotation
              JOINT HandTipLeft
              {
                OFFSET 2.343095 -7.832641 -0.416965
                CHANNELS 3 Zrotation Xrotation Yrotation
                End Site
                {
                  OFFSET 0 0 0
                }
              }
              JOINT ThumbLeft
              {
                OFFSET 2.903430 1.908549 6.964340
                CHANNELS 3 Zrotation Xrotation Yrotation
                End Site
                {
                  OFFSET 0 0 0
                }
              }
            }
          }
        }
      }
      JOINT ShoulderRight
      {
        OFFSET 9.243681 -3.840982 14.974864
        CHANNELS 3 Zrotation Xrotation Yrotation
        JOINT ElbowRight
        {
          OFFSET -0.211390 -25.855199 8.834678
          CHANNELS 3 Zrotation Xrotation Yrotation
          JOINT WristRight
          {
            OFFSET 0.452144 -25.519104 3.357828
            CHANNELS 3 Zrotation Xrotation Yrotation
            JOINT HandRight
            {
              OFFSET 1.131753 -5.213421 -0.011611
              CHANNELS 3 Zrotation Xrotation Yrotation
              JOINT HandTipRight
              {
                OFFSET 0.381493 -4.420102 -1.887823
                CHANNELS 3 Zrotation Xrotation Yrotation
                End Site
                {
                  OFFSET 0 0 0
                }
              }
              JOINT ThumbRight
              {
                OFFSET -3.220193 0.909627 -1.889608
                CHANNELS 3 Zrotation Xrotation Yrotation
                End Site
                {
                  OFFSET 0 0 0
                }
              }
            }
          }
        }
      }
    }
  }
  JOINT HipLeft
  {
    OFFSET -3.345471 1.983857 -9.073231
    CHANNELS 3 Zrotation Xrotation Yrotation
    JOINT KneeLeft
    {
      OFFSET -9.896516 -32.689813 -3.833627
      CHANNELS 3 Zrotation Xrotation Yrotation
      JOINT AnkleLeft
      {
        OFFSET -8.710445 -38.480119 7.966820
        CHANNELS 3 Zrotation Xrotation Yrotation
        JOINT FootLeft
        {
          OFFSET 7.342117 -2.435311 -7.590211
          CHANNELS 3 Zrotation Xrotation Yrotation
          End Site
          {
            OFFSET 0 0 0
          }
        }
      }
    }
  }
  JOINT HipRight
  {
    OFFSET 5.255221 0.093169 2.612117
    CHANNELS 3 Zrotation Xrotation Yrotation
    JOINT KneeRight
    {
      OFFSET 0.070385 -38.214249 1.873769
      CHANNELS 3 Zrotation Xrotation Yrotation
      JOINT AnkleRight
      {
        OFFSET -1.726707 -35.932536 5.193940
        CHANNELS 3 Zrotation Xrotation Yrotation
        JOINT FootRight
        {
          OFFSET 7.077666 -2.422485 -7.669117
          CHANNELS 3 Zrotation Xrotation Yrotation
          End Site
          {
            OFFSET 0 0 0
          }
        }
      }
    }
  }
}
MOTION
Frames: 10
Frame Time: 0.033333
-79.411295 78.364248 303.770554 -6.276778 0.902141 -43.905066 0.668146 0.148119 43.743722 0.548110 -0.371821 -0.183221 -4.038768 -3.511616 2.996366 0.000000 0.000000 0.000000 -1.397076 -6.098663 3.462797 -7.349122 2.138238 -0.296153 4.387649 4.819109 -2.514956 -10.934963 -5.184355 -0.996372 0.000000 0.000000 0.000000 0.000000 0.000000 0.000000 31.976515 5.369065 8.562985 62.468091 22.875569 -16.953683 12.659218 -1.580014 2.625311 -27.386654 -19.221291 -31.931203 0.000000 0.000000 0.000000 0.000000 0.000000 0.000000 3.660244 2.749688 43.969974 -5.407095 6.126327 -2.672648 6.072699 -5.054558 10.738361 0.000000 0.000000 0.000000 0.375286 -0.180860 43.634755 -1.218037 0.626394 -0.781438 -16.162139 -25.543429 1.571190 0.000000 0.000000 0.000000
-79.240460 78.472179 303.767533 -5.876059 0.581688 -45.775480 0.942582 0.103633 45.606557 0.635187 -0.444999 -0.151598 -4.538789 -2.399918 2.858903 0.000000 0.000000 0.000000 -1.555635 -4.847173 3.211439 -6.537933 1.951083 -0.347645 6.128628 6.330990 -1.879941 -11.847729 -5.975757 -1.499110 0.000000 0.000000 0.000000 0.000000 0.000000 0.000000 36.748660 -0.115235 11.463273 71.775261 20.458539 -25.105358 19.054962 -1.808596 4.762183 -37.549556 -13.164402 -39.776100 0.000000 0.000000 0.000000 0.000000 0.000000 0.000000 3.353366 2.242220 46.019268 -5.333809 6.881688 -2.855079 6.336248 -5.386030 9.895779 0.000000 0.000000 0.000000 -0.305771 -0.113908 45.509053 -1.259365 0.535332 -0.805409 -15.654511 -25.246519 1.663959 0.000000 0.000000 0.000000
-79.012309 78.724834 303.747283 -5.388321 0.137690 -48.102852 1.101619 0.070177 47.927202 0.672341 -0.499797 -0.123156 -4.635290 -1.350777 2.692998 0.000000 0.000000 0.000000 -1.495548 -3.252966 2.853727 -5.367115 1.638801 -0.401279 7.122329 7.541608 -1.231341 -12.065076 -6.334618 -1.756694 0.000000 0.000000 0.000000 0.000000 0.000000 0.000000 43.636295 -6.501421 15.932354 81.446910 15.367740 -35.741170 23.787931 -6.497648 13.920964 -47.168252 0.225447 -48.916935 0.000000 0.000000 0.000000 0.000000 0.000000 0.000000 2.794111 1.634738 48.551574 -4.970479 7.535932 -3.028279 6.495692 -5.683494 8.834353 0.000000 0.000000 0.000000 -1.312401 -0.006449 47.848161 -1.160255 0.259520 -0.828184 -15.590877 -25.301722 1.882455 0.000000 0.000000 0.000000
-78.709703 79.058144 303.771569 -4.837987 -0.388215 -50.620106 1.256465 0.059476 50.442214 0.690611 -0.566416 -0.092803 -4.516583 -0.607182 2.585885 0.000000 0.000000 0.000000 -1.347902 -1.586033 2.436184 -3.956259 1.590999 -0.409611 7.021770 8.406483 -0.569468 -11.571190 -7.174472 -2.134336 0.000000 0.000000 0.000000 0.000000 0.000000 0.000000 52.226067 -12.929196 21.997646 89.399137 6.727286 -46.640379 27.850693 -10.908763 29.336725 -51.525095 19.285305 -61.662236 0.000000 0.000000 0.000000 0.000000 0.000000 0.000000 2.033674 0.964724 51.271490 -4.442160 8.044619 -3.189279 6.612371 -5.948925 7.705462 0.000000 0.000000 0.000000 -2.489894 0.029410 50.380548 -1.072057 0.021603 -0.857325 -15.786890 -25.721241 1.978060 0.000000 0.000000 0.000000
-78.439191 79.484086 303.764478 -4.301400 -0.980077 -52.799273 1.273605 0.051734 52.623103 0.656253 -0.606471 -0.069543 -3.881277 -0.248271 2.488210 0.000000 0.000000 0.000000 -0.985516 0.082540 1.967182 -2.431616 1.665546 -0.361325 6.130019 8.793153 0.047515 -9.816639 -7.623262 -2.163080 0.000000 0.000000 0.000000 0.000000 0.000000 0.000000 62.598636 -19.152120 30.011341 96.839542 -5.100905 -60.905090 24.100208 -16.860301 47.958780 -40.034002 36.978033 -82.233414 0.000000 0.000000 0.000000 0.000000 0.000000 0.000000 1.329386 0.394503 53.630247 -3.961021 8.462975 -3.316050 6.638143 -6.164675 6.639073 0.000000 0.000000 0.000000 -3.982331 0.054710 52.581731 -0.656334 -0.676271 -0.866144 -15.783962 -25.574098 2.361341 0.000000 0.000000 0.000000
-78.234402 79.934006 303.758361 -3.759979 -1.583380 -54.345874 1.139473 0.029244 54.178873 0.558350 -0.600898 -0.053549 -3.076556 -0.510743 2.513672 0.000000 0.000000 0.000000 -0.463751 1.456905 1.497502 -1.154863 1.891295 -0.244617 4.972081 9.016789 0.573201 -7.748731 -8.409848 -2.205167 0.000000 0.000000 0.000000 0.000000 0.000000 0.000000 72.735259 -24.541118 38.838046 103.976684 -19.565147 -81.002127 24.024225 -15.412276 72.462715 -19.840190 48.761276 -118.007643 0.000000 0.000000 0.000000 0.000000 0.000000 0.000000 0.548180 -0.130712 55.320726 -3.346503 8.630855 -3.380380 6.472158 -6.224197 5.788443 0.000000 0.000000 0.000000 -5.654824 0.022410 54.151544 0.017071 -1.675393 -0.842763 -15.929755 -25.249120 2.666047 0.000000 0.000000 0.000000
-78.128132 80.436597 303.702525 -3.326748 -2.123748 -55.283872 1.024301 0.043263 55.128081 0.503743 -0.619051 -0.037419 -2.663796 -0.797249 2.609740 0.000000 0.000000 0.000000 -0.247575 2.870861 1.113429 0.020695 1.869374 -0.137894 4.868912 10.325379 1.126936 -7.830095 -9.406583 -2.463723 0.000000 0.000000 0.000000 0.000000 0.000000 0.000000 82.672594 -28.489226 48.025850 110.872845 -41.458485 -146.192871 18.510382 6.880114 143.496783 5.996574 52.626119 -168.525442 0.000000 0.000000 0.000000 0.000000 0.000000 0.000000 -0.093643 -0.572243 56.385931 -2.616514 8.708111 -3.405338 6.098901 -6.191483 5.115803 0.000000 0.000000 0.000000 -7.214405 0.020892 55.114753 0.770603 -2.791712 -0.790441 -16.118492 -24.764054 2.762643 0.000000 0.000000 0.000000
-78.152150 80.930306 303.610035 -3.024844 -2.569980 -55.488765 0.853192 0.068714 55.342746 0.434379 -0.601760 -0.028981 -2.072001 -1.566053 2.796892 0.000000 0.000000 0.000000 0.112614 3.949404 0.754775 0.791782 1.622905 -0.018898 4.472714 11.644849 1.577870 -7.719549 -10.853112 -2.835940 0.000000 0.000000 0.000000 0.000000 0.000000 0.000000 87.021905 -27.875490 50.920182 105.966121 -43.021563 64.329233 -16.900262 -15.004465 -40.926306 40.918714 32.800455 113.486807 0.000000 0.000000 0.000000 0.000000 0.000000 0.000000 -0.503275 -0.790559 56.681490 -2.020071 8.747452 -3.392154 6.976607 -4.587508 4.636272 0.000000 0.000000 0.000000 -8.560022 0.108751 55.349966 1.539260 -3.893092 -0.712889 -16.308444 -24.175806 2.499711 0.000000 0.000000 0.000000
-78.332174 81.228069 303.501093 -2.903117 -2.900997 -54.892682 0.659863 0.091519 54.749625 0.366201 -0.564351 -0.029401 -1.059593 -2.723647 3.027719 0.000000 0.000000 0.000000 0.609185 4.825555 0.423648 1.396037 1.238773 0.105878 3.029720 12.475363 1.953445 -5.638586 -12.534113 -2.925404 0.000000 0.000000 0.000000 0.000000 0.000000 0.000000 86.076364 -24.035127 47.650114 124.167644 -40.095705 9.265038 8.212834 -16.001061 28.960114 33.699972 19.236108 93.085701 0.000000 0.000000 0.000000 0.000000 0.000000 0.000000 -0.751546 -0.716059 56.113361 -1.562863 8.708890 -3.335871 4.692348 -6.240741 5.283224 0.000000 0.000000 0.000000 -9.461945 0.403544 54.800149 2.133499 -4.770187 -0.632537 -16.632044 -23.775730 2.154234 0.000000 0.000000 0.000000
-78.676222 81.327019 303.292171 -2.832067 -3.086573 -53.977060 0.509592 0.128261 53.836869 0.316920 -0.501796 -0.030751 -0.227135 -3.808122 3.236981 0.000000 0.000000 0.000000 1.123671 5.390295 0.111654 1.795688 0.775274 0.211503 1.051636 11.525757 2.047436 -2.985278 -11.679141 -2.248274 0.000000 0.000000 0.000000 0.000000 0.000000 0.000000 80.247301 -18.023253 39.780572 130.033570 -32.943259 -2.806897 10.214706 -11.263121 5.331115 18.613185 32.111090 125.043936 0.000000 0.000000 0.000000 0.000000 0.000000 0.000000 -0.862397 -0.577306 55.195661 -1.158702 8.537275 -3.237417 4.143069 -5.769187 6.023556 0.000000 0.000000 0.000000 -9.986222 0.633235 53.917386 2.711651 -5.398696 -0.531629 -17.243409 -23.620152 1.618009 0.000000 0.000000 0.000000
